
        <svg xmlns="http://www.w3.org/2000/svg" xmlns:xlink="http://www.w3.org/1999/xlink" version="1.1" width="3168.5393258426966" 
        height="994.3820224719102" viewBox="0 0 3168.5393258426966 994.3820224719102">
			
			<g transform="scale(8.426966292134832) translate(10, 10)">
				<defs id="SvgjsDefs11145"></defs><g id="SvgjsG11146" featureKey="symbolFeature-0" transform="matrix(1.6666666666666667,0,0,1.6666666666666667,-3.3333333333333335,-4)" fill="#33425b"><path xmlns="http://www.w3.org/2000/svg" d="M24,40c-3.309,0-6,2.691-6,6s2.691,6,6,6s6-2.691,6-6S27.309,40,24,40z M24,50c-2.206,0-4-1.794-4-4s1.794-4,4-4  s4,1.794,4,4S26.206,50,24,50z"></path><path xmlns="http://www.w3.org/2000/svg" d="M24,24c3.309,0,6-2.691,6-6s-2.691-6-6-6s-6,2.691-6,6S20.691,24,24,24z M24,14c2.206,0,4,1.794,4,4s-1.794,4-4,4  s-4-1.794-4-4S21.794,14,24,14z"></path><path xmlns="http://www.w3.org/2000/svg" d="M8,40c-3.309,0-6,2.691-6,6s2.691,6,6,6s6-2.691,6-6S11.309,40,8,40z M8,50c-2.206,0-4-1.794-4-4s1.794-4,4-4s4,1.794,4,4  S10.206,50,8,50z"></path><path xmlns="http://www.w3.org/2000/svg" d="M8,24c3.309,0,6-2.691,6-6s-2.691-6-6-6s-6,2.691-6,6S4.691,24,8,24z M8,14c2.206,0,4,1.794,4,4s-1.794,4-4,4s-4-1.794-4-4  S5.794,14,8,14z"></path><path xmlns="http://www.w3.org/2000/svg" d="M40,26c-3.309,0-6,2.691-6,6s2.691,6,6,6s6-2.691,6-6S43.309,26,40,26z M40,36c-2.206,0-4-1.794-4-4s1.794-4,4-4  s4,1.794,4,4S42.206,36,40,36z"></path><path xmlns="http://www.w3.org/2000/svg" d="M40,40c-3.309,0-6,2.691-6,6s2.691,6,6,6s6-2.691,6-6S43.309,40,40,40z M40,50c-2.206,0-4-1.794-4-4s1.794-4,4-4  s4,1.794,4,4S42.206,50,40,50z"></path><path xmlns="http://www.w3.org/2000/svg" d="M56,45c3.309,0,6-2.691,6-6c0-2.215-1.21-4.149-3-5.188V21v-7v-1c0-0.339-0.171-0.654-0.455-0.839  c-0.284-0.184-0.642-0.212-0.951-0.075l-9,4C48.232,16.247,48,16.604,48,17s0.232,0.753,0.594,0.914L57,21.65v11.44  C56.674,33.035,56.341,33,56,33c-1.257,0-2.424,0.39-3.389,1.054l-7.441-13.023C45.694,20.14,46,19.106,46,18c0-3.309-2.691-6-6-6  s-6,2.691-6,6c0,0.996,0.248,1.934,0.679,2.761l-7.735,6.016C26.073,26.285,25.07,26,24,26c-2.967,0-5.431,2.167-5.91,5H13.91  c-0.478-2.833-2.942-5-5.91-5c-3.309,0-6,2.691-6,6s2.691,6,6,6c2.967,0,5.431-2.167,5.91-5h4.181c0.478,2.833,2.942,5,5.91,5  c3.309,0,6-2.691,6-6c0-1.5-0.557-2.87-1.47-3.923l7.356-5.721C36.961,23.372,38.407,24,40,24c1.436,0,2.755-0.508,3.789-1.353  l7.342,12.849l0.013-0.008C50.428,36.477,50,37.688,50,39C50,42.309,52.691,45,56,45z M51.462,17L57,14.539v4.922L51.462,17z M8,36  c-2.206,0-4-1.794-4-4s1.794-4,4-4s4,1.794,4,4S10.206,36,8,36z M24,36c-2.206,0-4-1.794-4-4s1.794-4,4-4s4,1.794,4,4  S26.206,36,24,36z M40,22c-2.206,0-4-1.794-4-4s1.794-4,4-4s4,1.794,4,4S42.206,22,40,22z M56,35c0.347,0,0.678,0.058,1,0.142V39h2  v-2.618c0.615,0.703,1,1.612,1,2.618c0,2.206-1.794,4-4,4s-4-1.794-4-4S53.794,35,56,35z"></path><rect xmlns="http://www.w3.org/2000/svg" x="51" y="47" width="2" height="2"></rect><rect xmlns="http://www.w3.org/2000/svg" x="55" y="47" width="2" height="2"></rect><rect xmlns="http://www.w3.org/2000/svg" x="59" y="47" width="2" height="2"></rect></g><g id="SvgjsG11147" featureKey="textGroupContainer" transform="matrix(1,0,0,1,355,0)" fill="#f33535"><rect xmlns="http://www.w3.org/2000/svg" y="0" height="1" width="1" opacity="0"></rect><rect xmlns="http://www.w3.org/2000/svg" y="0" x="-235" width="3" height="98"></rect></g><g id="SvgjsG11148" featureKey="nameFeature-0" transform="matrix(1.5060865328709545,0,0,1.5060865328709545,136.5073009201328,17.66930575376717)" fill="#f33535"><path d="M1.02 15.9 l-0.02 0 c0 0.5 -0.02 1.02 0 1.54 c0.02 0.64 0.04 1.28 0.08 1.92 c0.02 0.22 0.06 0.28 0.28 0.32 c0.4 0.1 0.82 0.12 1.24 0.12 c1.08 -0.04 1.08 -0.22 1.08 -0.96 c-0.04 -0.38 -0.02 -0.54 -0.02 -1 c0 -0.66 -0.02 -0.74 -0.02 -1.68 c0.02 -0.76 0.02 -1.74 0.02 -2.52 c0 -0.42 0.06 -0.56 0.44 -0.56 l2.92 0 c0.42 0.06 0.26 -0.22 0.26 -0.64 s0.06 -0.44 0.04 -0.86 c0 -0.2 -0.04 -0.4 -0.06 -0.6 c-0.04 -0.34 -0.16 -0.46 -0.5 -0.46 c-0.22 0 -0.02 0.02 -0.22 0.04 c-0.86 0.06 -1.68 -0.06 -2.54 0 c-0.28 0 -0.32 -0.04 -0.34 -0.3 c-0.06 -0.78 0 -1.64 0.08 -2.42 c0.04 -0.32 0.1 -0.38 0.4 -0.4 l2.82 -0.02 c0.4 -0.04 0.52 -0.02 0.48 -0.4 c-0.04 -0.58 0.04 -1.18 -0.04 -1.76 c-0.04 -0.32 -0.12 -0.38 -0.48 -0.38 c-0.6 0.02 -0.74 0.02 -1.34 0.06 c-0.6 0.02 -3.02 0.02 -3.6 0.02 c-0.82 0 -0.9 -0.06 -0.92 0.96 c-0.02 0.8 -0.02 1.62 -0.02 2.44 c0 1.4 -0.08 6.42 -0.02 7.54 z M9.44 6.960000000000001 c-0.02 1.24 0.1 10.3 0.08 10.96 c0 0.62 0 1.24 0.02 1.86 c0 0.1 0.06 0.2 0.16 0.2 c1.4 0.06 2.78 -0.06 4.18 -0.04 c0.46 0.02 0.92 0 1.36 0 c0.44 -0.02 0.48 -0.2 0.46 -0.56 c-0.02 -0.56 -0.02 -1.06 -0.02 -1.6 c-0.02 -0.28 -0.18 -0.38 -0.42 -0.38 c-0.82 0.02 -1.64 -0.02 -2.46 0.02 c-0.14 0.02 -0.28 0.02 -0.42 0.02 c-0.24 -0.02 -0.3 -0.08 -0.32 -0.34 l0 -0.3 c-0.06 -1.66 0.06 -3.38 0.06 -5.04 c-0.02 -1.4 0 -2.66 -0.02 -3.9 c0 -0.54 0 -1.08 -0.02 -1.6 c-0.02 -0.32 0 -0.66 -0.08 -0.98 c-0.04 -0.12 -0.1 -0.28 -0.24 -0.28 l-1.88 0 c-0.32 0 -0.42 0.22 -0.44 0.54 l0 1.42 z M17.72 15.9 l-0.02 0 c0 0.5 -0.02 1.02 0 1.54 c0.02 0.64 0.06 1.28 0.1 1.92 c0 0.22 0.06 0.28 0.26 0.32 c0.42 0.1 0.82 0.12 1.24 0.12 c1.08 -0.04 2.16 0.04 3.24 0 c0.44 -0.02 0.64 0.02 1.08 -0.06 c0.4 -0.08 0.54 -0.3 0.54 -0.9 c-0.04 -0.38 -0.02 -0.54 -0.02 -1 c0 -0.66 -0.46 -0.88 -0.86 -0.86 c-0.28 0.02 -1.62 -0.02 -2.16 -0.02 c-0.9 0.02 -0.76 0.14 -0.76 -0.8 c0 -0.76 0.02 -1.74 0.02 -2.52 c0 -0.42 0.04 -0.56 0.44 -0.56 l2.5 0 c0.4 0.06 0.68 -0.22 0.68 -0.64 s0.04 -0.44 0.04 -0.86 l-0.06 -0.6 c-0.04 -0.34 -0.16 -0.46 -0.5 -0.46 c-0.22 0 -0.44 0.02 -0.66 0.04 c-0.86 0.06 -1.26 -0.06 -2.1 0 c-0.28 0 -0.32 -0.04 -0.34 -0.3 c-0.08 -0.78 0 -1.64 0.08 -2.42 c0.02 -0.32 0.1 -0.38 0.4 -0.4 l2.82 -0.02 c0.38 -0.04 0.5 -0.02 0.48 -0.4 c-0.04 -0.58 0.02 -1.18 -0.04 -1.76 c-0.04 -0.32 -0.14 -0.38 -0.5 -0.38 c-0.6 0.02 -0.74 0.02 -1.34 0.06 c-0.6 0.02 -3 0.02 -3.58 0.02 c-0.84 0 -0.9 -0.06 -0.92 0.96 c-0.04 0.8 -0.02 1.62 -0.02 2.44 c0 1.4 -0.08 6.42 -0.04 7.54 z M28.84 4.98 c-0.44 0.02 -1.62 0 -1.78 0 c-0.28 -0.02 -0.46 0.14 -0.44 0.42 c0 0.12 0.04 0.24 0.1 0.34 c0.58 1.1 1.12 2.34 1.64 3.46 l1.26 2.64 c0.12 0.26 0.04 0.48 -0.06 0.74 c-0.06 0.14 -0.1 0.3 -0.16 0.44 c-0.78 1.84 -1.66 3.7 -2.6 5.46 c-0.2 0.38 -0.42 0.78 -0.6 1.16 c-0.24 0.48 0.56 0.36 1.46 0.36 c1.42 0 1.44 -0.08 1.52 -0.26 c0.22 -0.46 1.54 -4.54 1.92 -4.54 c0.3 0 1.78 3.94 2.12 4.58 c0.08 0.16 0.34 0.24 0.54 0.24 l1.38 0 c0.26 0 0.88 0.08 0.88 -0.26 c0 -0.26 -1 -1.94 -1.28 -2.56 l-1.22 -2.72 c-0.2 -0.44 -0.38 -0.88 -0.58 -1.3 c-0.14 -0.34 -0.4 -0.78 -0.42 -1.14 c0 -0.2 2.26 -4.58 3.1 -6.64 c0.2 -0.5 -0.56 -0.4 -0.82 -0.4 c-0.48 0.02 -0.88 0 -1.34 0.02 c-0.44 0 -0.56 0.12 -0.72 0.5 l-0.12 0.28 c-0.4 0.84 -0.98 2.38 -1.4 3.22 c-0.02 0.04 -0.08 0.1 -0.12 0.1 c-0.06 0 -0.12 -0.06 -0.12 -0.12 c-0.34 -0.86 -1.04 -2.68 -1.44 -3.5 c-0.18 -0.36 -0.28 -0.54 -0.7 -0.52 z M40.779999999999994 14.84 c-0.06 -2.28 -0.04 -4.7 -0.02 -6.96 c0 -0.7 -0.04 -1.46 -0.04 -2.16 c0 -0.76 -0.3 -0.72 -0.7 -0.74 c-0.58 -0.02 -0.84 -0.02 -1.42 -0.02 c-0.38 -0.02 -0.54 0.08 -0.54 0.46 c0 1.96 -0.06 7.5 -0.04 8.3 s0.1 4.44 0.06 5.24 c-0.02 0.28 0 0.56 0.02 0.84 c0.02 0.1 0.08 0.2 0.24 0.2 c0.66 -0.04 1.28 -0.04 1.94 -0.06 c0.24 -0.02 0.44 -0.08 0.54 -0.34 c0.02 -0.14 -0.04 -3.8 -0.04 -4.76 z M42.839999999999996 6.539999999999999 c0 0.96 -0.04 11.28 0 12.2 c0.02 0.22 0.02 0.44 0.02 0.66 c0 0.16 0.1 0.26 0.24 0.32 c0.12 0.04 0.28 0.08 0.4 0.08 c0.58 -0.06 1.2 0 1.8 -0.02 c1.04 0.08 1.98 -0.16 2.88 -0.64 c0.84 -0.48 1.3 -1.34 1.62 -2.24 c0.26 -0.76 0.22 -1.66 0.08 -2.44 c-0.12 -0.7 -0.44 -1.38 -0.86 -1.94 c-0.06 -0.08 -0.92 -0.62 -0.88 -0.66 c0.52 -0.74 1.26 -1.36 1.36 -2.28 c0.08 -0.8 -0.1 -1.62 -0.38 -2.36 c-0.18 -0.48 -0.42 -0.94 -0.8 -1.3 c-0.64 -0.6 -1.6 -0.86 -2.44 -0.94 c-0.86 -0.08 -1.66 -0.02 -2.52 -0.06 c-0.3 0 -0.44 0.12 -0.44 0.44 c0 0.42 -0.08 0.76 -0.08 1.18 z M45.29999999999999 10.18 c-0.02 -0.22 0 -1.98 -0.04 -2.64 c-0.02 -0.24 0.12 -0.36 0.38 -0.3 c0.2 0.04 0.36 0.06 0.52 0.18 c0.5 0.38 0.88 0.84 0.9 1.48 c0 0.32 0 0.64 -0.12 0.94 c-0.14 0.36 -0.34 0.64 -0.7 0.82 c-0.24 0.12 -0.46 0.26 -0.7 0.36 c-0.12 0.04 -0.24 -0.02 -0.26 -0.14 c0 -0.24 0.02 -0.7 0.02 -0.7 z M47.3 15.48 c0 0.1 -0.02 0.28 -0.02 0.46 c-0.02 0.6 -0.8 1.36 -1.7 1.38 c-0.06 0 -0.16 -0.06 -0.18 -0.12 c-0.04 -0.12 -0.08 -0.26 -0.08 -0.4 c-0.02 -0.62 0 -1.22 0 -1.88 c0.06 -0.42 0.02 -0.86 0.02 -1.3 c0.02 -0.34 0.1 -0.4 0.42 -0.46 c0.48 -0.06 0.92 0.14 1.14 0.52 c0.26 0.46 0.36 0.96 0.4 1.48 l0 0.32 z M51.99999999999999 6.960000000000001 c-0.02 1.24 0.1 10.3 0.08 10.96 c0 0.62 0 1.24 0.02 1.86 c0 0.1 0.06 0.2 0.16 0.2 c1.4 0.06 2.78 -0.06 4.18 -0.04 c0.46 0.02 0.92 0 1.36 0 c0.44 -0.02 0.48 -0.2 0.46 -0.56 c-0.02 -0.56 -0.02 -1.06 -0.02 -1.6 c-0.02 -0.28 -0.18 -0.38 -0.42 -0.38 c-0.82 0.02 -1.64 -0.02 -2.46 0.02 c-0.14 0.02 -0.28 0.02 -0.42 0.02 c-0.24 -0.02 -0.3 -0.08 -0.32 -0.34 l0 -0.3 c-0.06 -1.66 0.06 -3.38 0.06 -5.04 c-0.02 -1.4 0 -2.66 -0.02 -3.9 c0 -0.54 0 -1.08 -0.02 -1.6 c-0.02 -0.32 0 -0.66 -0.08 -0.98 c-0.04 -0.12 -0.1 -0.28 -0.24 -0.28 l-1.88 0 c-0.32 0 -0.42 0.22 -0.44 0.54 l0 1.42 z M60.279999999999994 15.9 l-0.02 0 c0 0.5 -0.02 1.02 0 1.54 c0.02 0.64 0.06 1.28 0.1 1.92 c0 0.22 0.06 0.28 0.26 0.32 c0.42 0.1 0.82 0.12 1.24 0.12 c1.08 -0.04 2.16 0.04 3.24 0 c0.44 -0.02 0.64 0.02 1.08 -0.06 c0.4 -0.08 0.54 -0.3 0.54 -0.9 c-0.04 -0.38 -0.02 -0.54 -0.02 -1 c0 -0.66 -0.46 -0.88 -0.86 -0.86 c-0.28 0.02 -1.62 -0.02 -2.16 -0.02 c-0.9 0.02 -0.76 0.14 -0.76 -0.8 c0 -0.76 0.02 -1.74 0.02 -2.52 c0 -0.42 0.04 -0.56 0.44 -0.56 l2.5 0 c0.4 0.06 0.68 -0.22 0.68 -0.64 s0.04 -0.44 0.04 -0.86 l-0.06 -0.6 c-0.04 -0.34 -0.16 -0.46 -0.5 -0.46 c-0.22 0 -0.44 0.02 -0.66 0.04 c-0.86 0.06 -1.26 -0.06 -2.1 0 c-0.28 0 -0.32 -0.04 -0.34 -0.3 c-0.08 -0.78 0 -1.64 0.08 -2.42 c0.02 -0.32 0.1 -0.38 0.4 -0.4 l2.82 -0.02 c0.38 -0.04 0.5 -0.02 0.48 -0.4 c-0.04 -0.58 0.02 -1.18 -0.04 -1.76 c-0.04 -0.32 -0.14 -0.38 -0.5 -0.38 c-0.6 0.02 -0.74 0.02 -1.34 0.06 c-0.6 0.02 -3 0.02 -3.58 0.02 c-0.84 0 -0.9 -0.06 -0.92 0.96 c-0.04 0.8 -0.02 1.62 -0.02 2.44 c0 1.4 -0.08 6.42 -0.04 7.54 z M76.48 14.84 c-0.06 -2.28 -0.04 -4.7 -0.02 -6.96 c0 -0.7 -0.04 -1.46 -0.04 -2.16 c0 -0.76 -0.3 -0.72 -0.7 -0.74 c-0.58 -0.02 -0.84 -0.02 -1.42 -0.02 c-0.38 -0.02 -0.54 0.08 -0.54 0.46 c0 1.96 -0.06 7.5 -0.04 8.3 s0.1 4.44 0.06 5.24 c-0.02 0.28 0 0.56 0.02 0.84 c0.02 0.1 0.08 0.2 0.24 0.2 c0.66 -0.04 1.28 -0.04 1.94 -0.06 c0.24 -0.02 0.44 -0.08 0.54 -0.34 c0.02 -0.14 -0.04 -3.8 -0.04 -4.76 z M87.03999999999999 5.460000000000001 c0.06 0.28 0.02 13.6 0.02 13.94 c0 0.6 -0.22 0.58 -0.62 0.58 c-0.6 0 -1.44 0.1 -1.62 -0.1 c-0.16 -0.14 -3.12 -7.28 -3.54 -8.18 c-0.04 -0.08 -0.14 -0.28 -0.22 -0.24 c-0.1 0.04 -0.06 0.18 -0.06 0.26 c-0.02 0.7 0.1 6.74 0.1 7.7 c0 0.48 -0.02 0.56 -0.42 0.56 l-1 0 c-0.26 0 -0.58 -0.02 -0.84 0.02 c-0.2 0 -0.3 -0.06 -0.32 -0.26 l0 -1.58 c0.04 -1.68 0 -11.64 0 -12.38 c0 -0.64 0.18 -0.76 0.82 -0.76 c0.44 -0.02 0.88 -0.02 1.32 -0.02 c0.14 0 0.22 0.02 0.3 0.2 c0.54 1.26 2.84 7.04 3.2 7.74 c0.06 0.14 0.28 0.7 0.4 0.76 l0.02 0 c0.08 -0.08 0.06 -0.48 0.06 -0.6 c0 -0.3 -0.16 -7.32 -0.16 -7.46 c0 -0.2 -0.06 -0.38 0.04 -0.52 c0.06 -0.08 0.32 -0.1 0.42 -0.12 c0.56 -0.04 1.22 0.02 1.78 0 c0.28 0 0.26 0.2 0.32 0.46 z M93.16 4.9 c-0.38 0.02 -0.76 0.08 -1.14 0.2 c-0.82 0.28 -1.56 0.84 -2.06 1.56 c-0.44 0.66 -0.62 1.44 -0.68 2.22 c-0.04 0.6 0.02 1.22 0.3 1.76 c0.3 0.58 0.82 1.08 1.26 1.56 c0.4 0.42 0.8 0.84 1.24 1.22 c0.4 0.38 0.86 0.68 1.26 1.08 c0.58 0.58 0.8 1.9 0.38 2.62 c-0.5 0.8 -1.68 0.92 -2.46 0.66 c-0.4 -0.14 -0.76 -0.44 -1.1 -0.68 c-0.2 -0.14 -0.44 -0.2 -0.58 0.04 c-0.08 0.12 -0.12 0.26 -0.16 0.38 c-0.14 0.5 -0.32 0.96 -0.34 1.5 c-0.02 0.62 1.16 0.8 1.6 0.9 c1.96 0.46 4.32 0.1 5.34 -1.84 c0.2 -0.4 0.34 -0.82 0.42 -1.26 c0.02 -0.16 0.04 -0.3 0.04 -0.46 c0.08 -1.28 -0.44 -2.36 -1.22 -3.32 c-0.84 -1.04 -1.9 -1.76 -2.88 -2.66 c-0.6 -0.56 -0.82 -1.44 -0.64 -2.24 c0.18 -0.86 1.16 -1.08 1.9 -0.86 c0.22 0.06 0.4 0.16 0.6 0.28 c0.12 0.06 0.24 0.14 0.4 0.14 c0.28 0.02 0.32 -0.2 0.38 -0.42 c0.14 -0.5 0.38 -0.9 0.48 -1.38 c0.1 -0.54 -0.34 -0.64 -0.78 -0.78 c-0.52 -0.14 -1.02 -0.24 -1.56 -0.22 z M98.5 7.619999999999999 c0.02 1.18 0.02 11.2 0.02 12.02 c0 0.3 0.04 0.36 0.34 0.36 c0.68 0 0.68 0.02 1.36 0 c0.14 0 0.38 0 0.5 -0.06 c0.14 -0.06 0.06 -4.78 0.06 -5.04 c0 -0.28 0.56 -0.22 0.72 -0.22 c3.34 0 4.26 -2.4 4.26 -4.44 c0 -1.84 -0.36 -5.24 -4.52 -5.24 c-0.72 0 -1.46 0.02 -2.16 0.02 c-0.16 0 -0.36 -0.02 -0.5 0.08 c-0.16 0.12 -0.1 1.9 -0.08 2.52 z M100.8 11.74 c0 -0.44 -0.02 -3.06 0 -3.86 c0 -0.12 -0.02 -0.26 0 -0.4 c0.06 -0.22 0.32 -0.22 0.52 -0.2 c1.16 0.08 1.82 1.1 1.92 2.18 c0.08 0.78 -0.02 1.94 -0.58 2.56 c-0.4 0.42 -0.92 0.68 -1.6 0.68 c-0.14 0 -0.28 -0.16 -0.28 -0.3 c0 -0.22 0 -0.44 0.02 -0.66 z M107.78 15.9 l-0.02 0 c0 0.5 -0.02 1.02 0 1.54 c0.02 0.64 0.06 1.28 0.1 1.92 c0 0.22 0.06 0.28 0.26 0.32 c0.42 0.1 0.82 0.12 1.24 0.12 c1.08 -0.04 2.16 0.04 3.24 0 c0.44 -0.02 0.64 0.02 1.08 -0.06 c0.4 -0.08 0.54 -0.3 0.54 -0.9 c-0.04 -0.38 -0.02 -0.54 -0.02 -1 c0 -0.66 -0.46 -0.88 -0.86 -0.86 c-0.28 0.02 -1.62 -0.02 -2.16 -0.02 c-0.9 0.02 -0.76 0.14 -0.76 -0.8 c0 -0.76 0.02 -1.74 0.02 -2.52 c0 -0.42 0.04 -0.56 0.44 -0.56 l2.5 0 c0.4 0.06 0.68 -0.22 0.68 -0.64 s0.04 -0.44 0.04 -0.86 l-0.06 -0.6 c-0.04 -0.34 -0.16 -0.46 -0.5 -0.46 c-0.22 0 -0.44 0.02 -0.66 0.04 c-0.86 0.06 -1.26 -0.06 -2.1 0 c-0.28 0 -0.32 -0.04 -0.34 -0.3 c-0.08 -0.78 0 -1.64 0.08 -2.42 c0.02 -0.32 0.1 -0.38 0.4 -0.4 l2.82 -0.02 c0.38 -0.04 0.5 -0.02 0.48 -0.4 c-0.04 -0.58 0.02 -1.18 -0.04 -1.76 c-0.04 -0.32 -0.14 -0.38 -0.5 -0.38 c-0.6 0.02 -0.74 0.02 -1.34 0.06 c-0.6 0.02 -3 0.02 -3.58 0.02 c-0.84 0 -0.9 -0.06 -0.92 0.96 c-0.04 0.8 -0.02 1.62 -0.02 2.44 c0 1.4 -0.08 6.42 -0.04 7.54 z M124.12 7.359999999999999 c0.02 -0.66 0 -1.2 0 -1.84 c0 -0.74 -1.34 -0.66 -1.82 -0.64 c-2.14 0.14 -4.18 1.5 -5.16 3.36 c-0.28 0.54 -0.48 1.1 -0.62 1.68 c-0.34 1.36 -0.36 2.8 -0.2 4.18 c0.14 1.3 0.48 2.6 1.28 3.64 c1.38 1.82 3.92 2.46 6.1 2.12 c0.1 -0.02 0.2 -0.04 0.28 -0.1 c0.06 -0.04 0.12 -0.12 0.12 -0.2 l0.06 -1.14 c0.02 -0.36 0 -0.34 0 -0.7 c0 -0.48 -1 -0.12 -1.62 -0.12 c-0.6 0 -1.24 -0.02 -1.78 -0.3 c-0.96 -0.54 -1.5 -1.62 -1.8 -2.64 c-0.34 -1.1 -0.42 -2.28 -0.22 -3.4 c0.24 -1.46 0.94 -3.14 2.48 -3.64 c0.88 -0.3 1.82 -0.2 2.7 -0.1 c0.12 0.02 0.2 -0.06 0.2 -0.16 z M128.7 17.82 c0.02 0.62 0.02 1.24 0.04 1.86 c0 0.28 0.02 0.32 0.3 0.32 l1.8 0 c0.38 0 0.3 -0.64 0.28 -0.98 l0.06 -11.2 c0 -0.3 0.1 -0.4 0.5 -0.4 l1.76 0 c0.42 0 0.32 -0.72 0.32 -1.22 c0 -0.44 0.16 -1.2 -0.32 -1.2 c-0.34 0 -3.6 0 -4.94 0.02 c-0.66 0 -1.2 -0.02 -1.86 -0.02 c-0.5 0 -0.48 0.4 -0.48 1.28 c0 0.56 -0.02 1.12 0.46 1.12 c0.28 0 1.42 0 1.74 0.02 c0.2 0 0.34 0.06 0.38 0.28 c0 0.06 0.02 0.12 0.02 0.18 c0 1.44 -0.1 8.14 -0.06 9.94 z"></path></g><g id="SvgjsG11149" featureKey="sloganFeature-0" transform="matrix(1.1220195873193262,0,0,1.1220195873193262,137.7755962965444,51.49228724958092)" fill="#f33535"><path d="M6.1 7.300000000000001 l0 12.7 l-1.5 0 l0 -12.7 l-4.4 0 l0 -1.3 l10.3 0 l0 0.9 l-0.4 0.4 l-4 0 z M21.1 6 l1.5 0 l0 14 l-1.5 0 l0 -6.5 l-6.9 0 l0 6.5 l-1.5 0 l0 -14 l1.5 0 l0 6.2 l6.9 0 l0 -6.2 z M26.6 20 l0 -14 l9.1 0 l0 0.9 l-0.4 0.4 l-7.2 0 l0 4.9 l5.7 0 l0 1.3 l-5.7 0 l0 5.2 l7.6 0 l0 1.3 l-9.1 0 z M46.6 18.2 l0.1 0 l4 -12.2 l1.5 0 l0 0.6 l-4.6 13.4 l-1.9 0 l-4.6 -13.4 l0 -0.6 l1.5 0 z M54.900000000000006 16.4 l-1.2 3.6 l-1.5 0 l0 -0.6 l4.9 -13.4 l1.7 0 l4.9 13.4 l0 0.6 l-1.5 0 l-1.2 -3.6 l-6.1 0 z M60.50000000000001 15.1 l-2.5 -7.3 l-0.1 0 l-2.5 7.3 l5.1 0 z M66 6 l1.5 0 l0 12.7 l7.5 0 l0 1.3 l-9 0 l0 -14 z M78.7 20 l-1.5 0 l0 -14 l1.5 0 l0 14 z M82.7 20 l0 -14 l6.4 0 c2.1 0 3.5 1.4 3.5 3.3 l0 7.4 c0 1.9 -1.4 3.3 -3.5 3.3 l-6.4 0 z M84.2 7.300000000000001 l0 11.4 l4.9 0 c1.1 0 2 -0.9 2 -2 l0 -7.4 c0 -1.1 -0.9 -2 -2 -2 l-4.9 0 z M97.2 16.4 l-1.2 3.6 l-1.5 0 l0 -0.6 l4.9 -13.4 l1.7 0 l4.9 13.4 l0 0.6 l-1.5 0 l-1.2 -3.6 l-6.1 0 z M102.8 15.1 l-2.5 -7.3 l-0.1 0 l-2.5 7.3 l5.1 0 z M112.39999999999999 7.300000000000001 l0 12.7 l-1.5 0 l0 -12.7 l-4.4 0 l0 -1.3 l10.3 0 l0 0.9 l-0.4 0.4 l-4 0 z M118.6 16.9 l0 -7.8 c0 -1.9 1.4 -3.3 3.5 -3.3 l3.5 0 c2.1 0 3.5 1.4 3.5 3.3 l0 7.8 c0 1.9 -1.4 3.3 -3.5 3.3 l-3.5 0 c-2.1 0 -3.5 -1.4 -3.5 -3.3 z M127.6 16.9 l0 -7.8 c0 -1.1 -0.9 -2 -2 -2 l-3.5 0 c-1.1 0 -2 0.9 -2 2 l0 7.8 c0 1.1 0.9 2 2 2 l3.5 0 c1.1 0 2 -0.9 2 -2 z M134.2 20 l-1.5 0 l0 -14 l6.2 0 c2.1 0 3.5 1.4 3.5 3.3 l0 1.9 c0 2.8 -2.7 3.2 -2.7 3.2 l3.1 5 l0 0.6 l-1.5 0 l-3.1 -5.5 l-4 0 l0 5.5 z M138.89999999999998 7.300000000000001 l-4.7 0 l0 5.9 l4.7 0 c1.1 0 2 -0.9 2 -2 l0 -1.9 c0 -1.1 -0.9 -2 -2 -2 z"></path></g>
			</g>
		</svg>
	