
        <svg xmlns="http://www.w3.org/2000/svg" xmlns:xlink="http://www.w3.org/1999/xlink" version="1.1" width="3162.6016260162605" 
        height="1300.8130081300815" viewBox="0 0 3162.6016260162605 1300.8130081300815">
			
			<g transform="scale(8.130081300813009) translate(10, 10)">
				<defs id="SvgjsDefs11427"></defs><g id="SvgjsG11428" featureKey="rootContainer" transform="matrix(1,0,0,1,0,0)" fill="#f33535"><rect y="0" height="1" width="1" opacity="0"></rect><rect y="135" width="369" height="5"></rect></g><g id="SvgjsG11429" featureKey="symbolFeature-0" transform="matrix(2.0833333333333335,0,0,2.0833333333333335,-4.166666666666667,4)" fill="#33425b"><path xmlns="http://www.w3.org/2000/svg" d="M24,40c-3.309,0-6,2.691-6,6s2.691,6,6,6s6-2.691,6-6S27.309,40,24,40z M24,50c-2.206,0-4-1.794-4-4s1.794-4,4-4  s4,1.794,4,4S26.206,50,24,50z"></path><path xmlns="http://www.w3.org/2000/svg" d="M24,24c3.309,0,6-2.691,6-6s-2.691-6-6-6s-6,2.691-6,6S20.691,24,24,24z M24,14c2.206,0,4,1.794,4,4s-1.794,4-4,4  s-4-1.794-4-4S21.794,14,24,14z"></path><path xmlns="http://www.w3.org/2000/svg" d="M8,40c-3.309,0-6,2.691-6,6s2.691,6,6,6s6-2.691,6-6S11.309,40,8,40z M8,50c-2.206,0-4-1.794-4-4s1.794-4,4-4s4,1.794,4,4  S10.206,50,8,50z"></path><path xmlns="http://www.w3.org/2000/svg" d="M8,24c3.309,0,6-2.691,6-6s-2.691-6-6-6s-6,2.691-6,6S4.691,24,8,24z M8,14c2.206,0,4,1.794,4,4s-1.794,4-4,4s-4-1.794-4-4  S5.794,14,8,14z"></path><path xmlns="http://www.w3.org/2000/svg" d="M40,26c-3.309,0-6,2.691-6,6s2.691,6,6,6s6-2.691,6-6S43.309,26,40,26z M40,36c-2.206,0-4-1.794-4-4s1.794-4,4-4  s4,1.794,4,4S42.206,36,40,36z"></path><path xmlns="http://www.w3.org/2000/svg" d="M40,40c-3.309,0-6,2.691-6,6s2.691,6,6,6s6-2.691,6-6S43.309,40,40,40z M40,50c-2.206,0-4-1.794-4-4s1.794-4,4-4  s4,1.794,4,4S42.206,50,40,50z"></path><path xmlns="http://www.w3.org/2000/svg" d="M56,45c3.309,0,6-2.691,6-6c0-2.215-1.21-4.149-3-5.188V21v-7v-1c0-0.339-0.171-0.654-0.455-0.839  c-0.284-0.184-0.642-0.212-0.951-0.075l-9,4C48.232,16.247,48,16.604,48,17s0.232,0.753,0.594,0.914L57,21.65v11.44  C56.674,33.035,56.341,33,56,33c-1.257,0-2.424,0.39-3.389,1.054l-7.441-13.023C45.694,20.14,46,19.106,46,18c0-3.309-2.691-6-6-6  s-6,2.691-6,6c0,0.996,0.248,1.934,0.679,2.761l-7.735,6.016C26.073,26.285,25.07,26,24,26c-2.967,0-5.431,2.167-5.91,5H13.91  c-0.478-2.833-2.942-5-5.91-5c-3.309,0-6,2.691-6,6s2.691,6,6,6c2.967,0,5.431-2.167,5.91-5h4.181c0.478,2.833,2.942,5,5.91,5  c3.309,0,6-2.691,6-6c0-1.5-0.557-2.87-1.47-3.923l7.356-5.721C36.961,23.372,38.407,24,40,24c1.436,0,2.755-0.508,3.789-1.353  l7.342,12.849l0.013-0.008C50.428,36.477,50,37.688,50,39C50,42.309,52.691,45,56,45z M51.462,17L57,14.539v4.922L51.462,17z M8,36  c-2.206,0-4-1.794-4-4s1.794-4,4-4s4,1.794,4,4S10.206,36,8,36z M24,36c-2.206,0-4-1.794-4-4s1.794-4,4-4s4,1.794,4,4  S26.206,36,24,36z M40,22c-2.206,0-4-1.794-4-4s1.794-4,4-4s4,1.794,4,4S42.206,22,40,22z M56,35c0.347,0,0.678,0.058,1,0.142V39h2  v-2.618c0.615,0.703,1,1.612,1,2.618c0,2.206-1.794,4-4,4s-4-1.794-4-4S53.794,35,56,35z"></path><rect xmlns="http://www.w3.org/2000/svg" x="51" y="47" width="2" height="2"></rect><rect xmlns="http://www.w3.org/2000/svg" x="55" y="47" width="2" height="2"></rect><rect xmlns="http://www.w3.org/2000/svg" x="59" y="47" width="2" height="2"></rect></g><g id="SvgjsG11430" featureKey="nameFeature-0" transform="matrix(1.9748654582910432,0,0,1.9748654582910432,143.05027002510715,2.9910217636366845)" fill="#f33535"><path d="M2 40 l0 -32 l6.48 0 c4.12 0 5.2 2.52 5.52 8.56 l0 1.28 c-0.32 6.04 -1.4 8.56 -5.52 8.56 l-2.48 0 l0 13.6 l-4 0 z M6 23.2 l2.48 0 c1.2 0 1.64 -1 1.8 -5.36 l0 -1.28 c-0.16 -4.36 -0.6 -5.36 -1.8 -5.36 l-2.48 0 l0 12 z M17.7 8 l4 0 l2.4 12.32 l0.4 0 l2.4 -12.32 l4 0 l-4.6 18.08 l0 13.92 l-4 0 l0 -13.92 z M35 30.240000000000002 l4.04 0 c0.08 5.16 0.48 6.16 1.92 6.16 c1.96 0 1.96 -1.64 1.96 -6 c0 -6.4 -7.92 -4.68 -7.92 -13.2 c0 -5 0 -9.6 6 -9.6 c4.44 0 5.64 2.52 5.92 8.56 l-4 0 c-0.16 -4.36 -0.64 -5.36 -1.92 -5.36 c-1.96 0 -1.96 2.16 -1.96 6.4 c0 6.2 7.96 4 7.96 13.2 c0 5.6 0 10 -6.04 10 c-4.64 0 -5.72 -2.76 -5.96 -10.16 z M51.099999999999994 11.600000000000001 l0 -3.6 l12 0 l0 3.6 l-4 0 l0 28.4 l-4 0 l0 -28.4 l-4 0 z M66.8 8 l4.2 0 l2.4 23.6 l0.4 0 l2.4 -23.6 l4.2 0 l-4.4 32 l-4.8 0 z M85.7 40 l0 -16.8 c0 -11.16 0 -15.56 6 -15.56 s6 4.4 6 15.56 l0 16.8 l-4 0 l0 -9.2 l-4 0 l0 9.2 l-4 0 z M89.7 27.6 l4 0 l0 -4.4 c0 -10.4 0 -12.36 -2 -12.36 s-2 1.96 -2 12.36 l0 4.4 z M104.2 40 l0 -32 l4 0 l0 28 l5.2 0 l0 4 l-9.2 0 z"></path></g><g id="SvgjsG11431" featureKey="sloganFeature-0" transform="matrix(1.6634486403406292,0,0,1.6634486403406292,142.4050188281622,90.9899019589402)" fill="#f33535"><path d="M2.18 7.359999999999999 l6.04 0 c0.42 0 0.62 0.34 0.62 0.68 s-0.2 0.66 -0.62 0.66 l-2.28 0 l0 10.06 c0 0.42 -0.34 0.64 -0.68 0.64 s-0.66 -0.22 -0.66 -0.64 l0 -10.06 l-2.42 0 c-0.42 0 -0.62 -0.32 -0.62 -0.66 s0.2 -0.68 0.62 -0.68 z M13.040000000000001 18.76 l0 -10.76 c0 -0.42 0.32 -0.62 0.66 -0.62 s0.68 0.2 0.68 0.62 l0 4.58 l4.54 0 l0 -4.58 c0 -0.42 0.32 -0.64 0.64 -0.64 s0.66 0.22 0.66 0.64 l0 10.76 c0 0.42 -0.34 0.64 -0.66 0.64 s-0.64 -0.22 -0.64 -0.64 l0 -4.82 l-4.54 0 l0 4.82 c0 0.42 -0.34 0.64 -0.68 0.64 s-0.66 -0.22 -0.66 -0.64 z M25.28 18.7 l0 -10.64 c0 -0.46 0.36 -0.7 0.7 -0.7 l4.6 0 c0.44 0 0.66 0.32 0.66 0.66 s-0.22 0.68 -0.66 0.68 l-3.96 0 l0 3.88 l3.14 0 c0.46 0 0.68 0.32 0.68 0.66 s-0.24 0.7 -0.68 0.7 l-3.14 0 l0 4.14 l3.96 0 c0.42 0 0.64 0.34 0.64 0.66 c0 0.34 -0.22 0.66 -0.64 0.66 l-4.6 0 c-0.34 0 -0.7 -0.12 -0.7 -0.7 z M43.9 7.800000000000001 l2.62 9.02 l2.74 -8.98 c0.26 -0.86 1.48 -0.52 1.24 0.32 l-3.2 10.68 c-0.1 0.36 -0.42 0.56 -0.76 0.56 s-0.7 -0.2 -0.8 -0.56 l-3.06 -10.66 c-0.26 -0.9 1 -1.16 1.22 -0.38 z M60.72 18.86 l-0.78 -2.54 l-3.72 0 l-0.74 2.5 c-0.26 0.86 -1.58 0.6 -1.3 -0.28 c1.04 -3.5 2.06 -7.06 3.08 -10.6 c0.12 -0.38 0.44 -0.58 0.76 -0.58 c0.3 0 0.62 0.2 0.74 0.58 l3.18 10.6 c0.22 0.76 -0.96 1.18 -1.22 0.32 z M58.06 10.06 l-1.44 4.92 l2.94 0 c-0.5 -1.68 -0.96 -3.12 -1.5 -4.92 z M66.38000000000001 18.76 l0 -10.76 c0 -0.42 0.32 -0.64 0.64 -0.64 s0.66 0.22 0.66 0.64 l0 10.06 l3.98 0 c0.44 0 0.68 0.34 0.68 0.68 s-0.24 0.66 -0.68 0.66 l-4.62 0 c-0.4 0 -0.66 -0.32 -0.66 -0.64 z M76.30000000000001 18.78 l0 -10.78 c0 -0.42 0.32 -0.64 0.64 -0.64 s0.66 0.22 0.66 0.64 l0 10.78 c0 0.86 -1.3 0.86 -1.3 0 z M82.62 18.78 l0 -10.76 c0 -0.54 0.38 -0.66 0.66 -0.66 l3.2 0 c2.64 0 3.94 1.26 3.94 3.74 l0 5.12 c0 1.56 -1.22 3.2 -3.88 3.2 l-3.26 0 c-0.28 0 -0.66 -0.16 -0.66 -0.64 z M89.1 16.22 l0 -5.12 c0 -1.64 -0.88 -2.4 -2.62 -2.4 l-2.54 0 l0 9.42 l2.6 0 c1.22 0 2.56 -0.66 2.56 -1.9 z M101.08000000000001 18.86 l-0.78 -2.54 l-3.72 0 l-0.74 2.5 c-0.26 0.86 -1.58 0.6 -1.3 -0.28 c1.04 -3.5 2.06 -7.06 3.08 -10.6 c0.12 -0.38 0.44 -0.58 0.76 -0.58 c0.3 0 0.62 0.2 0.74 0.58 l3.18 10.6 c0.22 0.76 -0.96 1.18 -1.22 0.32 z M98.42 10.06 l-1.44 4.92 l2.94 0 c-0.5 -1.68 -0.96 -3.12 -1.5 -4.92 z M106.38000000000001 7.359999999999999 l6.04 0 c0.42 0 0.62 0.34 0.62 0.68 s-0.2 0.66 -0.62 0.66 l-2.28 0 l0 10.06 c0 0.42 -0.34 0.64 -0.68 0.64 s-0.66 -0.22 -0.66 -0.64 l0 -10.06 l-2.42 0 c-0.42 0 -0.62 -0.32 -0.62 -0.66 s0.2 -0.68 0.62 -0.68 z M117.08000000000001 15.86 l0 -4.96 c0 -2.4 1.24 -3.68 3.64 -3.68 l0.52 0 c2.38 0 3.64 1.28 3.64 3.68 l0 4.96 c0 2.2 -1.46 3.64 -3.64 3.64 l-0.52 0 c-2.22 0 -3.64 -1.46 -3.64 -3.64 z M120.72000000000001 18.16 l0.52 0 c1.44 0 2.3 -0.9 2.3 -2.3 l0 -4.96 c0 -1.56 -0.76 -2.36 -2.3 -2.36 l-0.52 0 c-1.52 0 -2.36 0.82 -2.36 2.36 l0 4.96 c0 1.46 0.92 2.3 2.36 2.3 z M131.02 15.9 l0 2.86 c0 0.44 -0.34 0.64 -0.66 0.64 c-0.34 0 -0.66 -0.2 -0.66 -0.64 l0 -10.74 c0 -0.4 0.22 -0.66 0.66 -0.66 l2.7 0 c0.76 0 3.16 0.22 3.16 2.92 l0 2.5 c0 1.52 -0.56 2.48 -1.84 2.9 l1.36 2.74 c0.28 0.54 -0.14 0.98 -0.58 0.98 c-0.24 0 -0.54 -0.16 -0.7 -0.5 l-1.46 -3 l-1.98 0 z M134.9 12.780000000000001 l0 -2.5 c0 -0.48 -0.18 -1.58 -1.84 -1.58 l-2.04 0 l0 5.86 l1.86 0 c0.98 0 2.02 -0.22 2.02 -1.78 z"></path></g>
			</g>
		</svg>
	