
        <svg xmlns="http://www.w3.org/2000/svg" xmlns:xlink="http://www.w3.org/1999/xlink" version="1.1" width="3171.4285714285716" 
        height="2218.0936544455276" viewBox="0 0 3171.4285714285716 2218.0936544455276">
			<rect fill="#ffffff" width="3171.4285714285716" height="2218.0936544455276"/>
			<g transform="scale(8.571428571428573) translate(10, 10)">
				<defs id="SvgjsDefs8889"></defs><g id="SvgjsG8890" featureKey="pxMwYC-0" transform="matrix(1.6694078947368418,0,0,1.6694078947368418,91.30592105263159,-16.694078947368418)" fill="#01696e"><path xmlns="http://www.w3.org/2000/svg" d="M83.999,33.667c2.758,0,5.001,2.244,5.001,5.001c0,2.756-2.243,4.999-5.001,4.999c-2.757,0-4.999-2.243-4.999-4.999  C79,35.91,81.242,33.667,83.999,33.667 M83.999,32.667c-3.308,0-5.999,2.691-5.999,6.001c0,3.308,2.691,5.999,5.999,5.999  c3.309,0,6.001-2.691,6.001-5.999C90,35.358,87.308,32.667,83.999,32.667L83.999,32.667z"></path><path xmlns="http://www.w3.org/2000/svg" d="M83.999,11C86.757,11,89,13.244,89,16.001C89,18.757,86.757,21,83.999,21C81.242,21,79,18.757,79,16.001  C79,13.244,81.242,11,83.999,11 M83.999,10C80.691,10,78,12.691,78,16.001C78,19.309,80.691,22,83.999,22  C87.308,22,90,19.309,90,16.001C90,12.691,87.308,10,83.999,10L83.999,10z"></path><path xmlns="http://www.w3.org/2000/svg" d="M61.332,56.333c2.758,0,5.001,2.243,5.001,5.001c0,2.757-2.243,4.999-5.001,4.999c-2.757,0-4.999-2.242-4.999-4.999  C56.333,58.576,58.575,56.333,61.332,56.333 M61.332,55.333c-3.308,0-5.999,2.692-5.999,6.001c0,3.308,2.691,5.999,5.999,5.999  c3.309,0,6.001-2.691,6.001-5.999C67.333,58.025,64.641,55.333,61.332,55.333L61.332,55.333z"></path><path xmlns="http://www.w3.org/2000/svg" d="M61.332,79c2.758,0,5.001,2.243,5.001,5.001c0,2.757-2.243,4.999-5.001,4.999c-2.757,0-4.999-2.242-4.999-4.999  C56.333,81.243,58.575,79,61.332,79 M61.332,78c-3.308,0-5.999,2.691-5.999,6.001c0,3.308,2.691,5.999,5.999,5.999  c3.309,0,6.001-2.691,6.001-5.999C67.333,80.691,64.641,78,61.332,78L61.332,78z"></path><path xmlns="http://www.w3.org/2000/svg" d="M61.332,11c2.758,0,5.001,2.244,5.001,5.001c0,2.756-2.243,4.999-5.001,4.999c-2.757,0-4.999-2.243-4.999-4.999  C56.333,13.244,58.575,11,61.332,11 M61.332,10c-3.308,0-5.999,2.691-5.999,6.001c0,3.308,2.691,5.999,5.999,5.999  c3.309,0,6.001-2.691,6.001-5.999C67.333,12.691,64.641,10,61.332,10L61.332,10z"></path><path xmlns="http://www.w3.org/2000/svg" d="M38.666,79c2.757,0,5.001,2.243,5.001,5.001c0,2.757-2.244,4.999-5.001,4.999c-2.756,0-4.999-2.242-4.999-4.999  C33.667,81.243,35.909,79,38.666,79 M38.666,78c-3.308,0-5.999,2.691-5.999,6.001c0,3.308,2.691,5.999,5.999,5.999  c3.309,0,6.001-2.691,6.001-5.999C44.667,80.691,41.974,78,38.666,78L38.666,78z"></path><path xmlns="http://www.w3.org/2000/svg" d="M38.666,33.667c2.757,0,5.001,2.244,5.001,5.001c0,2.756-2.244,4.999-5.001,4.999c-2.756,0-4.999-2.243-4.999-4.999  C33.667,35.91,35.909,33.667,38.666,33.667 M38.666,32.667c-3.308,0-5.999,2.691-5.999,6.001c0,3.308,2.691,5.999,5.999,5.999  c3.309,0,6.001-2.691,6.001-5.999C44.667,35.358,41.974,32.667,38.666,32.667L38.666,32.667z"></path><path xmlns="http://www.w3.org/2000/svg" d="M38.666,11c2.757,0,5.001,2.244,5.001,5.001c0,2.756-2.244,4.999-5.001,4.999c-2.756,0-4.999-2.243-4.999-4.999  C33.667,13.244,35.909,11,38.666,11 M38.666,10c-3.308,0-5.999,2.691-5.999,6.001c0,3.308,2.691,5.999,5.999,5.999  c3.309,0,6.001-2.691,6.001-5.999C44.667,12.691,41.974,10,38.666,10L38.666,10z"></path><path xmlns="http://www.w3.org/2000/svg" d="M15.999,56.333c2.757,0,5.001,2.243,5.001,5.001c0,2.757-2.244,4.999-5.001,4.999c-2.756,0-4.999-2.242-4.999-4.999  C11,58.576,13.243,56.333,15.999,56.333 M15.999,55.333c-3.308,0-5.999,2.692-5.999,6.001c0,3.308,2.691,5.999,5.999,5.999  c3.309,0,6.001-2.691,6.001-5.999C22,58.025,19.308,55.333,15.999,55.333L15.999,55.333z"></path><path xmlns="http://www.w3.org/2000/svg" d="M15.999,79C18.756,79,21,81.243,21,84.001C21,86.758,18.756,89,15.999,89C13.243,89,11,86.758,11,84.001  C11,81.243,13.243,79,15.999,79 M15.999,78C12.691,78,10,80.691,10,84.001C10,87.309,12.691,90,15.999,90  C19.308,90,22,87.309,22,84.001C22,80.691,19.308,78,15.999,78L15.999,78z"></path><path xmlns="http://www.w3.org/2000/svg" d="M84.5,78.025V67.308c3.074-0.256,5.5-2.835,5.5-5.974c0-3.309-2.692-6.001-6.001-6.001c-1.474,0-2.823,0.537-3.869,1.423  L65.91,42.537c0.886-1.045,1.423-2.395,1.423-3.869c0-3.31-2.692-6.001-6.001-6.001c-3.308,0-5.999,2.691-5.999,6.001  c0,1.474,0.537,2.824,1.423,3.87l-14.22,14.219c-1.046-0.886-2.396-1.423-3.871-1.423c-1.474,0-2.824,0.537-3.87,1.423  L20.577,42.537C21.463,41.492,22,40.142,22,38.667c0-3.141-2.426-5.72-5.501-5.976V21.975C19.574,21.719,22,19.14,22,16.001  C22,12.691,19.308,10,15.999,10C12.691,10,10,12.691,10,16.001c0,3.139,2.425,5.718,5.499,5.974v10.717  C12.425,32.947,10,35.527,10,38.667c0,3.308,2.691,5.999,5.999,5.999c1.475,0,2.825-0.537,3.871-1.422l14.22,14.219  c-0.886,1.046-1.423,2.396-1.423,3.871c0,3.308,2.691,5.999,5.999,5.999c3.309,0,6.001-2.691,6.001-5.999  c0-1.475-0.537-2.825-1.423-3.871l14.22-14.219c1.045,0.885,2.395,1.422,3.869,1.422s2.825-0.537,3.871-1.423l14.22,14.219  C78.537,58.509,78,59.859,78,61.334c0,3.139,2.426,5.719,5.5,5.974v10.718C80.426,78.28,78,80.86,78,84.001  C78,87.309,80.691,90,83.999,90C87.308,90,90,87.309,90,84.001C90,80.86,87.574,78.281,84.5,78.025z"></path></g><g id="SvgjsG8891" featureKey="Vx5QiU-0" transform="matrix(3.800216903423634,0,0,3.800216903423634,-5.9283390579330275,135.30293254522218)" fill="#04292a"><path d="M10.63 6.08 q1.33 0.7 2.05 1.89 t0.72 2.65 t-0.67 2.62 t-2.01 1.83 t-3.24 0.67 l-2.76 0 l0 4.26 l-3.16 0 l0 -14.62 l5.94 0 q1.8 0 3.13 0.7 z M9.64 12.3 q0.58 -0.7 0.58 -1.68 q0 -0.64 -0.3 -1.21 t-0.89 -0.93 t-1.41 -0.36 l-2.9 0 l0 4.88 l3.22 0 q1.12 0 1.7 -0.7 z M22.6 14.46 l0 5.54 l-3.16 0 l0 -5.54 l-5.76 -9.06 l3.7 0 l3.64 5.9 l3.68 -5.9 l3.7 0 z M32.18 16.87 q1.42 0.57 2.6 0.57 q1.24 0 1.97 -0.48 t0.73 -1.14 q0 -0.54 -0.43 -0.88 t-1.09 -0.51 t-1.74 -0.37 q-1.44 -0.24 -2.64 -0.62 t-2.18 -1.32 t-0.98 -2.54 q0 -2.36 1.73 -3.39 t4.07 -1.03 q1.8 0 3.13 0.49 t2.65 1.47 l-1.76 2.4 q-0.98 -0.7 -2.04 -1.1 t-2.1 -0.4 q-0.92 0 -1.72 0.33 t-0.8 1.11 q0 0.48 0.41 0.77 t0.9 0.42 t1.59 0.37 l0.72 0.14 q1.66 0.32 2.75 0.71 t1.89 1.31 t0.8 2.56 q0 2.22 -1.57 3.38 t-4.25 1.16 q-3.92 0 -6.6 -2.28 l1.68 -2.42 q0.86 0.72 2.28 1.29 z M48.5 8.12 l0 11.88 l-3.18 0 l0 -11.88 l-4.26 0 l0 -2.74 l11.68 0 l0 2.74 l-4.24 0 z M60.599999999999994 20.36 l-7.38 -14.96 l3.48 0 l3.9 8.08 l3.92 -8.08 l3.5 0 z M73.64 4.92 l8.02 15.08 l-3.46 0 l-1.16 -2.24 l-6.82 0 l-1.12 2.24 l-3.48 0 z M75.52000000000001 15.059999999999999 l-1.88 -3.82 l-1.86 3.82 l3.74 0 z M93.66 20 l-10.84 0 l0 -14.62 l3.18 0 l0 11.88 l7.66 0 l0 2.74 z"></path></g><g id="SvgjsG8892" featureKey="aAUSXE-0" transform="matrix(0.9504573889201279,0,0,0.9504573889201279,27.429726110504003,219.48330942852778)" fill="#01696e"><path d="M12.58 6.779999999999999 l-4.42 0 l0 13.22 l-3.14 0 l0 -13.22 l-4.42 0 l0 -2.76 l11.98 0 l0 2.76 z M38.660000000000004 20 l-3.1 0 l0 -7.08 l-6.3 0 l0 7.08 l-3.1 0 l0 -15.98 l3.1 0 l0 6.34 l6.3 0 l0 -6.34 l3.1 0 l0 15.98 z M63.8 20 l-10.56 0 l0 -15.98 l10.56 0 l0 2.56 l-7.52 0 l0 3.82 l7.42 0 l0 2.5 l-7.42 0 l0 4.4 l7.52 0 l0 2.7 z M109.46000000000001 4 l-6.06 16 l-2.84 0 l-6.2 -16 l3.44 0 l4.16 11.24 l4.1 -11.24 l3.4 0 z M135.98 20 l-3.4 0 l-1.48 -3.2 l-7.76 0 l-1.5 3.2 l-3.4 0 l7.56 -16 l2.42 0 z M129.88 14.219999999999999 l-2.66 -5.76 l-2.7 5.76 l5.36 0 z M159.98 20 l-10.82 0 l0 -15.98 l3.16 0 l0 12.98 l7.66 0 l0 3 z M176.45999999999998 20 l-3.1 0 l0 -15.98 l3.1 0 l0 15.98 z M205.26 12 q0 1.66 -0.56 3.11 t-1.56 2.54 t-2.39 1.72 t-3.03 0.63 l-6.68 0 l0 -16 l6.68 0 q1.64 0 3.03 0.64 t2.39 1.72 t1.56 2.54 t0.56 3.1 z M202.12 11.92 q0.02 -1.12 -0.34 -2.12 t-1.04 -1.75 t-1.67 -1.18 t-2.23 -0.43 l-2.7 0 l0 10.92 l2.7 0 q1.22 0 2.19 -0.41 t1.65 -1.14 t1.05 -1.72 t0.39 -2.17 z M234.04 20 l-3.4 0 l-1.48 -3.2 l-7.76 0 l-1.5 3.2 l-3.4 0 l7.56 -16 l2.42 0 z M227.94 14.219999999999999 l-2.66 -5.76 l-2.7 5.76 l5.36 0 z M255.6 6.779999999999999 l-4.42 0 l0 13.22 l-3.14 0 l0 -13.22 l-4.42 0 l0 -2.76 l11.98 0 l0 2.76 z M284.68 12 q0 1.72 -0.67 3.24 t-1.83 2.64 t-2.7 1.77 t-3.28 0.65 t-3.29 -0.65 t-2.71 -1.77 t-1.83 -2.63 t-0.67 -3.25 t0.67 -3.26 t1.83 -2.64 t2.71 -1.76 t3.29 -0.64 t3.28 0.64 t2.7 1.77 t1.83 2.64 t0.67 3.25 z M281.56 12 q0 -1.1 -0.42 -2.07 t-1.15 -1.7 t-1.71 -1.16 t-2.08 -0.43 q-1.12 0 -2.1 0.43 t-1.71 1.16 t-1.15 1.7 t-0.42 2.07 q0 1.08 0.42 2.06 t1.15 1.71 t1.71 1.16 t2.1 0.43 q1.1 0 2.08 -0.43 t1.71 -1.16 t1.15 -1.71 t0.42 -2.06 z M310.7 20 l-3.42 0 l-1.14 -3.64 q-0.18 -0.6 -0.45 -1.1 t-0.65 -0.86 t-0.91 -0.56 t-1.25 -0.2 l-1.16 0 l0 6.36 l-3.06 0 l0 -15.98 l6.32 -0.02 q1.02 0 1.9 0.35 t1.52 0.97 t1 1.46 t0.36 1.82 q0 0.7 -0.22 1.36 t-0.62 1.22 t-0.95 0.99 t-1.21 0.65 q0.76 0.28 1.24 0.81 t0.76 1.27 q0.14 0.34 0.26 0.68 t0.25 0.71 t0.28 0.8 t0.33 0.95 q0.22 0.66 0.41 1.13 t0.41 0.83 z M306.64 8.82 q0 -0.56 -0.21 -1.02 t-0.57 -0.8 t-0.85 -0.53 t-1.05 -0.19 l-2.24 0 l0 4.98 l2.24 0 q0.56 0 1.05 -0.17 t0.85 -0.49 t0.57 -0.77 t0.21 -1.01 z"></path></g>
			</g>
		</svg>
	